<svg width="50" height="50" viewBox="0 0 50 50" fill="none" xmlns="http://www.w3.org/2000/svg">
<script>alert(1)</script>
<path fill-rule="evenodd" clip-rule="evenodd" d="M25 50C38.8071 50 50 38.8071 50 25C50 11.1929 38.8071 0 25 0C11.1929 0 0 11.1929 0 25C0 38.8071 11.1929 50 25 50ZM26.1699 29.5801H23.4277L23.2168 12.6348H26.3809L26.1699 29.5801ZM26.8027 36.1719C26.8027 37.2969 25.9414 38.1758 24.7988 38.1758C23.6738 38.1758 22.7949 37.2969 22.7949 36.1719C22.7949 35.0293 23.6738 34.168 24.7988 34.168C25.9414 34.168 26.8027 35.0293 26.8027 36.1719Z" fill="#56EC9E"/>
</svg>
